<?xml version="1.0" encoding="UTF-8"?>
<svg id="Layer_1" data-name="Layer 1" xmlns="http://www.w3.org/2000/svg" version="1.1" xmlns:xlink="http://www.w3.org/1999/xlink" viewBox="0 0 320 240">
  <defs>
    <style>
      .cls-1 {
        fill: none;
        stroke: #000;
        stroke-miterlimit: 10;
        stroke-width: 2px;
      }

      .cls-2 {
        fill: url(#linear-gradient);
        stroke-width: 0px;
      }
    </style>
    <linearGradient id="linear-gradient" x1="162.1" y1="88.7" x2="160.6" y2="159.7" gradientUnits="userSpaceOnUse">
      <stop offset="0" stop-color="#27ad2e"/>
      <stop offset=".8" stop-color="#056205"/>
    </linearGradient>
  </defs>
  <g>
    <path class="cls-2" d="M48.7,139.3c-7.3,0-12.6-1.5-16.1-4.4-3.5-2.9-5.1-7.6-4.8-14.2h12.2c0,3,.6,5.1,1.9,6.4,1.3,1.3,3.5,1.9,6.6,1.9s5.5-.5,6.8-1.6c1.3-1.1,2-2.7,2-4.9s-.6-3.5-1.9-4.5-3.8-1.5-7.6-1.5h-4.7v-6.8l8.1-7.2h-21.2v-9.8h36.2v7.9l-11,9.1h1.6c4,.3,7.1,1.5,9.4,3.8,2.3,2.3,3.5,5.4,3.5,9.4s-1.6,9.5-4.8,12.2c-3.2,2.7-8.7,4.1-16.3,4.1Z"/>
    <path class="cls-2" d="M75.4,138.3v-45.5h20.3c4.1,0,7.5.3,10.2.9,2.7.6,5,1.7,7.1,3.3,2.1,1.6,3.6,4,4.5,7,.9,3,1.4,6.9,1.4,11.6s-.4,8.1-1.3,11c-.9,2.9-2.3,5.2-4.3,7-2,1.7-4.3,2.9-7.1,3.6-2.8.7-6.3,1.1-10.5,1.1h-20.3ZM94,128.5c2.5,0,4.4-.1,5.8-.4,1.4-.3,2.7-.9,3.8-1.8,1.1-.9,1.9-2.2,2.3-3.9.4-1.7.7-3.9.7-6.8s-.2-4.4-.5-6c-.3-1.6-.8-2.9-1.3-3.8-.6-.9-1.4-1.6-2.5-2.1-1.1-.5-2.3-.8-3.5-.9-1.2-.1-2.8-.2-4.8-.2h-6.4v26h6.4Z"/>
    <path class="cls-2" d="M165,126.8l-14.2-15.6v27h-12.2v-45.5h9.5l17,19.7,16.8-19.7h9.4v45.5h-12.2v-27l-14.2,15.5Z"/>
    <path class="cls-2" d="M194.5,138.3l19.5-45.5h10.8l19.4,45.5h-13.6l-2.4-6.6h-17.9l-2.4,6.6h-13.3ZM219.3,107.7l-6,16h11.9l-5.9-16Z"/>
    <path class="cls-2" d="M279.5,138.3l-9.5-15-9.4,15h-15l16.2-23.2-15-22.4h14.7l8.8,14.5,9-14.5h14.2l-15,22.4,16.2,23.1h-15.2Z"/>
  </g>
  <polyline class="cls-1" points="207.9 151.8 260.3 151.8 170.4 159.9 275.3 155.8"/>
</svg>